<?xml version="1.0" standalone="no"?>
<!DOCTYPE svg PUBLIC "-//W3C//DTD SVG 20010904//EN"
 "http://www.w3.org/TR/2001/REC-SVG-20010904/DTD/svg10.dtd">
<svg version="1.0" xmlns="http://www.w3.org/2000/svg"
 width="200.000000pt" height="150.000000pt" viewBox="0 0 200.000000 150.000000"
 preserveAspectRatio="xMidYMid meet">

<g transform="translate(0.000000,150.000000) scale(0.100000,-0.100000)"
fill="#000000" stroke="none">
<path d="M257 1172 c-3 -4 16 -7 43 -7 26 0 46 3 43 8 -6 9 -80 9 -86 -1z"/>
<path d="M215 1158 c-2 -7 -5 -22 -7 -33 -2 -12 -11 -19 -21 -19 -21 2 -22
-12 -1 -20 23 -9 23 -9 30 32 4 20 12 40 18 44 8 5 7 8 -2 8 -7 0 -14 -6 -17
-12z"/>
<path d="M363 1143 c-1 -17 2 -22 7 -13 6 9 11 2 15 -23 4 -20 11 -35 15 -32
8 5 -19 95 -29 95 -3 0 -7 -12 -8 -27z"/>
<path d="M108 1114 c-14 -7 -28 -21 -32 -31 -5 -16 -5 -16 6 -2 22 27 53 40
66 27 8 -8 12 -9 12 -1 0 18 -24 22 -52 7z"/>
<path d="M280 1106 c0 -9 -4 -16 -10 -16 -5 0 -10 -4 -10 -10 0 -5 8 -6 18 -3
15 6 15 5 3 -10 -11 -14 -11 -17 0 -17 10 0 10 -3 1 -12 -10 -10 -15 -10 -22
2 -7 11 -10 11 -10 2 0 -18 31 -27 40 -12 7 11 11 11 25 0 12 -10 18 -11 28
-1 7 7 8 11 2 10 -15 -4 -55 11 -55 21 0 5 14 12 32 15 26 6 29 9 14 17 -9 5
-13 14 -10 20 4 7 2 8 -4 4 -6 -4 -9 -13 -5 -21 3 -10 -1 -15 -12 -15 -11 0
-15 5 -12 15 4 8 2 17 -3 20 -6 4 -10 -1 -10 -9z"/>
<path d="M440 1105 c-15 -18 -7 -19 21 -2 18 10 23 9 36 -10 9 -13 22 -23 29
-23 8 0 14 -7 14 -16 0 -9 5 -12 11 -8 14 8 -58 73 -82 74 -9 0 -22 -7 -29
-15z"/>
<path d="M1436 1088 c-8 -14 -12 -38 -9 -60 6 -45 23 -51 23 -9 0 16 6 32 13
34 9 4 8 8 -3 17 -11 9 -12 13 -2 17 14 6 16 23 2 23 -5 0 -16 -10 -24 -22z"/>
<path d="M1940 1050 c0 -33 4 -60 10 -60 6 0 10 27 10 60 0 33 -4 60 -10 60
-6 0 -10 -27 -10 -60z"/>
<path d="M630 1045 c0 -30 5 -55 10 -55 6 0 10 19 10 42 0 45 9 44 26 -5 15
-44 29 -44 47 0 l15 38 1 -37 c2 -60 21 -44 21 17 0 65 -21 76 -41 20 -7 -19
-16 -35 -20 -35 -4 0 -13 16 -19 35 -8 24 -18 35 -31 35 -16 0 -19 -7 -19 -55z"/>
<path d="M790 1090 c0 -5 5 -10 10 -10 6 0 10 5 10 10 0 6 -4 10 -10 10 -5 0
-10 -4 -10 -10z"/>
<path d="M940 1090 c0 -5 5 -10 10 -10 6 0 10 5 10 10 0 6 -4 10 -10 10 -5 0
-10 -4 -10 -10z"/>
<path d="M1539 1084 c-12 -14 -10 -19 14 -38 34 -27 35 -40 2 -33 -16 3 -24 0
-22 -7 5 -16 36 -20 52 -6 22 18 18 39 -10 52 -30 14 -33 28 -4 28 11 0 17 5
14 10 -9 15 -31 12 -46 -6z"/>
<path d="M1800 1090 c0 -5 5 -10 10 -10 6 0 10 5 10 10 0 6 -4 10 -10 10 -5 0
-10 -4 -10 -10z"/>
<path d="M1060 1072 c-10 -11 -11 -17 -2 -20 7 -2 12 -17 12 -33 0 -19 5 -29
14 -29 21 0 29 17 11 24 -20 7 -19 36 0 36 8 0 15 5 15 10 0 6 -6 10 -14 10
-8 0 -16 4 -18 9 -1 5 -10 2 -18 -7z"/>
<path d="M104 1059 c0 -12 8 -25 16 -27 13 -5 13 -3 0 13 -8 10 -13 20 -12 22
2 3 2 7 -1 9 -2 3 -4 -5 -3 -17z"/>
<path d="M224 1060 c0 -11 3 -20 7 -20 10 0 19 27 12 34 -12 11 -19 6 -19 -14z"/>
<path d="M361 1071 c-8 -5 -9 -11 -3 -15 5 -3 12 1 16 9 6 17 6 18 -13 6z"/>
<path d="M53 1055 c0 -8 4 -15 9 -15 4 0 8 4 8 9 0 6 -4 12 -8 15 -5 3 -9 -1
-9 -9z"/>
<path d="M435 1060 c-3 -5 -1 -10 4 -10 6 0 11 5 11 10 0 6 -2 10 -4 10 -3 0
-8 -4 -11 -10z"/>
<path d="M480 1054 c0 -9 -5 -12 -12 -8 -7 4 -8 3 -4 -5 4 -7 13 -10 19 -8 13
4 19 37 6 37 -5 0 -9 -7 -9 -16z"/>
<path d="M790 1030 c0 -22 5 -40 10 -40 6 0 10 18 10 40 0 22 -4 40 -10 40 -5
0 -10 -18 -10 -40z"/>
<path d="M840 1029 c0 -44 17 -54 22 -12 4 39 28 42 28 4 0 -17 5 -31 11 -31
6 0 9 16 7 38 -3 34 -6 37 -35 39 -32 1 -33 0 -33 -38z"/>
<path d="M940 1030 c0 -22 5 -40 10 -40 6 0 10 18 10 40 0 22 -4 40 -10 40 -5
0 -10 -18 -10 -40z"/>
<path d="M994 1055 c-4 -10 1 -22 12 -30 18 -13 18 -14 2 -15 -25 0 -22 -20 2
-20 29 0 37 28 14 46 -18 15 -18 15 -1 10 12 -4 17 -2 15 6 -7 20 -37 22 -44
3z"/>
<path d="M1130 1028 c0 -21 5 -38 10 -38 6 0 10 14 10 30 0 17 5 30 10 30 6 0
10 4 10 9 0 6 -9 9 -20 8 -16 -1 -20 -8 -20 -39z"/>
<path d="M1190 1065 c0 -3 7 -21 15 -41 8 -19 12 -41 9 -49 -4 -8 -1 -15 5
-15 6 0 11 1 11 3 0 1 9 26 20 55 11 29 15 52 10 52 -6 0 -15 -12 -21 -27
l-11 -28 -10 28 c-8 23 -28 38 -28 22z"/>
<path d="M1343 1063 c-21 -8 -16 -61 6 -68 40 -12 70 20 51 56 -10 18 -31 23
-57 12z m42 -33 c0 -8 -8 -16 -17 -18 -13 -2 -18 3 -18 18 0 15 5 20 18 18 9
-2 17 -10 17 -18z"/>
<path d="M1630 1055 c-26 -32 13 -81 48 -59 34 22 22 74 -18 74 -10 0 -23 -7
-30 -15z m50 -25 c0 -13 -7 -20 -20 -20 -19 0 -27 20 -13 33 13 14 33 6 33
-13z"/>
<path d="M1732 1058 c-26 -26 -1 -77 33 -64 22 8 18 25 -5 19 -16 -4 -20 0
-20 17 0 18 4 21 21 17 13 -3 19 -1 16 6 -5 17 -30 20 -45 5z"/>
<path d="M1800 1030 c0 -22 5 -40 10 -40 6 0 10 18 10 40 0 22 -4 40 -10 40
-5 0 -10 -18 -10 -40z"/>
<path d="M1850 1061 c0 -6 10 -11 23 -12 l22 0 -23 -10 c-33 -13 -25 -44 11
-45 26 -1 28 1 25 35 -3 31 -7 36 -30 39 -16 2 -28 -1 -28 -7z m37 -47 c-3 -3
-12 -4 -19 -1 -8 3 -5 6 6 6 11 1 17 -2 13 -5z"/>
<path d="M392 1055 c4 -4 3 -16 -3 -26 -7 -15 -6 -19 5 -19 8 0 18 5 22 12 5
7 3 8 -6 3 -10 -6 -12 -4 -7 8 3 9 1 19 -6 23 -7 4 -9 4 -5 -1z"/>
<path d="M149 1038 c-1 -7 -1 -17 0 -22 1 -5 -4 -6 -12 -3 -7 3 -14 -1 -14 -8
0 -10 5 -11 19 -4 10 6 16 14 13 19 -3 4 0 10 7 12 9 3 9 6 0 12 -7 4 -13 2
-13 -6z"/>
<path d="M190 1030 c-12 -8 -12 -10 -1 -10 8 0 11 -3 8 -7 -4 -3 -2 -12 3 -18
7 -9 7 -21 0 -39 -8 -21 -7 -26 6 -26 8 0 12 -5 9 -10 -4 -6 -11 -8 -16 -5 -5
4 -9 1 -9 -4 0 -19 -2 -26 -11 -43 -6 -11 -5 -18 3 -20 6 -2 8 -10 4 -17 -6
-9 -11 -9 -22 0 -8 6 -14 8 -14 5 0 -4 -7 0 -16 9 -9 9 -19 13 -22 10 -3 -3 3
-11 13 -19 18 -13 13 -42 -6 -30 -5 3 -7 10 -4 15 4 5 2 9 -3 9 -5 0 -12 11
-14 25 -3 14 -1 25 3 25 5 0 6 6 3 14 -3 8 -1 17 5 21 14 8 14 25 1 25 -5 0
-14 -18 -20 -41 -9 -34 -8 -46 8 -77 23 -44 36 -49 49 -20 l10 22 27 -27 c15
-15 36 -27 46 -27 11 0 20 -4 20 -10 0 -5 7 -7 15 -4 10 4 15 0 15 -11 0 -15
6 -13 45 10 39 22 46 24 51 10 8 -21 25 -19 17 3 -5 13 -1 12 19 -5 13 -13 29
-23 34 -23 10 0 48 70 59 106 4 17 2 22 -12 20 -10 0 -17 5 -16 11 2 7 -1 12
-6 10 -4 -1 -18 9 -30 23 -20 22 -21 22 -12 3 11 -22 -2 -43 -14 -23 -3 5 -3
10 1 10 3 0 1 6 -6 14 -6 8 -18 12 -26 9 -8 -3 -14 0 -14 6 0 6 -5 11 -11 11
-8 0 -9 -4 0 -13 6 -8 7 -17 3 -22 -4 -4 3 -2 16 4 26 14 31 -3 5 -17 -9 -6
-18 -17 -19 -27 -1 -9 0 -14 3 -11 4 3 12 1 19 -5 10 -8 11 -16 3 -30 -6 -12
-6 -19 0 -19 5 0 13 10 16 22 6 16 1 26 -16 39 l-24 18 30 -3 c17 -2 36 1 44
8 12 9 13 8 8 -6 -4 -12 -2 -15 9 -11 7 3 14 2 14 -1 0 -4 -10 -10 -21 -14
-19 -8 -20 -10 -6 -24 9 -9 13 -19 9 -23 -4 -5 -1 -5 6 -1 14 8 17 -10 3 -19
-5 -3 -17 5 -25 17 -13 18 -16 19 -16 5 0 -12 -8 -17 -25 -17 -19 0 -25 5 -23
18 2 9 8 20 13 24 6 5 6 8 -2 8 -6 0 -15 -4 -18 -10 -3 -5 -23 -8 -43 -6 -20
2 -31 2 -24 -1 10 -4 10 -8 1 -19 -9 -11 -8 -14 5 -14 10 0 14 5 11 10 -3 6
-2 10 4 10 5 0 12 -6 14 -12 4 -10 6 -10 6 0 1 7 6 10 12 7 16 -11 -26 -36
-48 -29 -15 5 -15 4 -3 -5 8 -5 11 -13 7 -17 -12 -12 -22 7 -26 49 -1 4 -5 7
-11 7 -5 0 -7 -6 -4 -14 3 -8 1 -17 -5 -21 -7 -4 -11 7 -11 29 0 20 5 36 11
36 5 0 7 -4 4 -10 -3 -5 -2 -10 3 -10 6 0 9 11 8 24 -1 23 -2 23 -18 9 -10 -9
-18 -22 -18 -30 0 -7 -11 -13 -27 -13 -26 0 -26 1 -7 16 10 8 13 12 5 8 -9 -5
-12 -3 -7 4 4 7 13 12 20 12 7 0 21 9 30 19 10 11 24 17 31 15 7 -3 16 -1 20
5 3 6 0 9 -8 5 -15 -5 -31 22 -21 37 10 16 26 9 20 -8 -6 -17 -5 -17 8 0 11
15 15 15 25 3 9 -11 9 -15 -1 -18 -8 -3 -8 -6 3 -10 11 -4 15 2 14 23 0 21 -5
29 -17 29 -10 0 -18 5 -18 10 0 6 6 10 13 10 15 0 51 40 43 48 -3 3 -14 -2
-24 -11 -23 -21 -59 -22 -79 -2 -8 9 -18 14 -21 11 -8 -8 29 -46 45 -46 7 0
13 -4 13 -10 0 -5 -9 -10 -19 -10 -11 0 -23 5 -26 10 -8 12 -25 13 -25 2 0 -5
10 -13 22 -19 15 -6 18 -12 10 -17 -7 -4 -12 -2 -12 4 0 6 -4 8 -10 5 -5 -3
-10 -1 -10 5 0 6 -4 8 -10 5 -13 -8 -13 8 1 22 7 7 6 19 -3 41 -10 25 -16 29
-28 22z m65 -116 c14 -6 13 -9 -6 -30 -12 -13 -29 -24 -36 -24 -8 0 -3 11 14
26 l28 26 -27 -16 c-31 -18 -38 -11 -10 10 21 16 17 15 37 8z m229 -95 c-5 -8
-10 -6 -16 5 -5 9 -6 21 -2 27 5 8 10 6 16 -5 5 -9 6 -21 2 -27z m-247 -25
c-3 -3 -12 -4 -19 -1 -8 3 -5 6 6 6 11 1 17 -2 13 -5z m208 -25 c11 -17 -1
-21 -15 -4 -8 9 -8 15 -2 15 6 0 14 -5 17 -11z"/>
<path d="M435 1030 c3 -5 11 -10 16 -10 6 0 7 5 4 10 -3 6 -11 10 -16 10 -6 0
-7 -4 -4 -10z"/>
<path d="M67 1008 c-15 -23 -15 -23 -31 -3 -8 11 -15 16 -15 10 0 -5 13 -25
28 -43 24 -28 32 -32 49 -23 11 6 22 7 26 4 3 -3 6 -1 6 5 0 6 -4 14 -10 17
-5 3 -10 2 -10 -3 0 -16 -33 -24 -42 -10 -14 22 -9 31 10 17 15 -12 16 -12 5
2 -10 12 -10 18 -1 27 6 6 9 14 6 17 -3 3 -12 -5 -21 -17z"/>
<path d="M565 1022 c4 -8 -1 -23 -11 -35 -18 -22 -18 -22 6 0 20 19 22 25 11
35 -11 11 -13 10 -6 0z"/>
<path d="M470 1005 c-7 -8 -18 -15 -25 -15 -7 0 -19 -8 -26 -17 -11 -15 -11
-16 1 -5 18 16 26 15 28 -3 1 -8 3 -22 4 -30 1 -8 6 -11 11 -8 6 4 8 -1 4 -11
-5 -11 -3 -15 5 -10 6 4 18 -2 26 -12 13 -18 14 -18 7 6 -4 14 -10 32 -13 40
-5 13 -3 13 14 0 12 -9 11 -5 -5 13 -19 21 -27 24 -38 15 -11 -9 -12 -7 -7 6
4 10 16 21 27 25 12 5 16 10 10 14 -6 4 -16 0 -23 -8z m13 -66 c4 -16 3 -18
-9 -8 -7 6 -11 15 -8 20 8 13 11 11 17 -12z"/>
<path d="M410 1000 c-8 -5 -10 -10 -5 -10 6 0 17 5 25 10 8 5 11 10 5 10 -5 0
-17 -5 -25 -10z"/>
<path d="M507 991 c-3 -14 -1 -18 9 -14 8 3 14 11 14 19 0 21 -17 17 -23 -5z"/>
<path d="M363 973 c-7 -2 -13 -9 -13 -15 0 -6 7 -7 16 -4 8 3 12 2 9 -4 -3 -6
1 -10 9 -10 18 0 19 2 10 24 -6 17 -11 18 -31 9z"/>
<path d="M1440 947 c0 -18 -5 -23 -21 -23 -12 1 -26 -7 -33 -16 -16 -26 4 -53
43 -55 l31 -1 0 59 c0 33 -4 59 -10 59 -5 0 -10 -10 -10 -23z m0 -57 c0 -11
-6 -20 -14 -20 -18 0 -29 16 -21 30 11 18 35 11 35 -10z"/>
<path d="M650 920 c0 -27 -5 -42 -17 -49 -10 -5 -14 -13 -10 -17 4 -5 16 -3
25 2 19 13 30 104 13 104 -6 0 -11 -18 -11 -40z"/>
<path d="M930 950 c0 -5 5 -10 10 -10 6 0 10 5 10 10 0 6 -4 10 -10 10 -5 0
-10 -4 -10 -10z"/>
<path d="M136 942 c-2 -4 0 -14 6 -22 8 -12 9 -12 5 2 -3 9 -1 19 6 22 9 3 9
5 0 5 -6 1 -14 -3 -17 -7z"/>
<path d="M867 936 c-9 -23 12 -86 28 -86 8 0 15 5 15 10 0 6 -4 10 -10 10 -5
0 -10 9 -10 20 0 13 7 20 20 20 16 0 20 -7 20 -30 0 -16 5 -30 10 -30 6 0 10
18 10 40 0 38 -2 40 -30 40 -16 0 -30 5 -30 10 0 15 -17 12 -23 -4z"/>
<path d="M690 909 c0 -37 18 -58 50 -57 28 1 30 4 30 40 0 43 -17 52 -22 11
-2 -17 -9 -28 -18 -28 -9 0 -16 11 -18 28 -4 31 -22 37 -22 6z"/>
<path d="M797 923 c-13 -13 -7 -30 16 -42 l22 -12 -22 5 c-26 5 -31 -11 -8
-20 8 -4 22 0 31 7 14 12 14 15 -6 31 -18 15 -19 18 -6 18 10 0 14 5 11 10 -7
11 -28 13 -38 3z"/>
<path d="M978 905 c-9 -21 -9 -29 4 -42 11 -10 23 -13 35 -8 16 6 16 8 -4 16
-28 10 -30 29 -3 36 11 3 17 9 14 14 -10 17 -35 9 -46 -16z"/>
<path d="M1058 905 c-14 -30 3 -55 38 -55 33 0 30 18 -3 23 -26 4 -26 4 5 6
33 1 42 17 20 39 -20 20 -48 14 -60 -13z m49 -1 c-3 -3 -12 -4 -19 -1 -8 3 -5
6 6 6 11 1 17 -2 13 -5z"/>
<path d="M1200 921 c0 -6 10 -11 23 -12 20 0 19 -2 -6 -11 -39 -14 -32 -42 11
-45 32 -1 33 0 30 35 -3 32 -7 37 -30 40 -16 2 -28 -1 -28 -7z m37 -47 c-3 -3
-12 -4 -19 -1 -8 3 -5 6 6 6 11 1 17 -2 13 -5z"/>
<path d="M1290 888 c0 -21 5 -38 10 -38 6 0 10 14 10 30 0 20 5 30 15 30 10 0
15 -10 15 -30 0 -16 5 -30 11 -30 6 0 9 16 7 38 -3 34 -5 37 -35 37 -32 1 -33
-1 -33 -37z"/>
<path d="M157 890 c-3 -11 -2 -20 3 -20 4 0 10 9 13 20 3 11 2 20 -3 20 -4 0
-10 -9 -13 -20z"/>
<path d="M124 889 c-3 -6 -1 -16 6 -22 10 -9 11 -9 5 2 -4 8 -2 17 6 22 9 6
10 9 2 9 -6 0 -15 -5 -19 -11z"/>
<path d="M285 850 c-3 -5 1 -10 10 -10 9 0 13 5 10 10 -3 6 -8 10 -10 10 -2 0
-7 -4 -10 -10z"/>
<path d="M630 765 l0 -55 35 0 c19 0 35 5 35 10 0 6 -11 10 -25 10 -16 0 -25
6 -25 15 0 8 9 15 20 15 11 0 20 5 20 10 0 6 -9 10 -20 10 -11 0 -20 5 -20 10
0 6 11 10 25 10 14 0 25 5 25 10 0 6 -16 10 -35 10 l-35 0 0 -55z"/>
<path d="M1717 797 c-9 -25 8 -82 26 -85 9 -2 17 1 17 7 0 6 -4 11 -10 11 -14
0 -12 38 2 42 9 3 8 9 -4 21 -20 20 -24 21 -31 4z"/>
<path d="M146 779 c-16 -16 -17 -19 -4 -19 18 0 43 26 31 33 -4 2 -17 -4 -27
-14z"/>
<path d="M731 746 c1 -38 2 -39 8 -11 8 38 35 40 39 3 4 -38 22 -35 22 3 0 38
24 35 28 -4 4 -35 22 -35 22 1 0 41 -10 48 -67 48 l-53 0 1 -40z"/>
<path d="M881 730 c1 -30 3 -47 6 -37 2 9 13 17 23 17 24 0 42 24 38 52 -2 19
-9 23 -35 23 l-33 1 1 -56z m49 20 c0 -21 -24 -28 -35 -10 -8 14 3 30 21 30 8
0 14 -9 14 -20z"/>
<path d="M980 775 c-26 -32 13 -81 48 -59 34 22 22 74 -18 74 -10 0 -23 -7
-30 -15z m50 -25 c0 -13 -7 -20 -20 -20 -19 0 -27 20 -13 33 13 14 33 6 33
-13z"/>
<path d="M1070 781 c0 -4 5 -22 11 -40 13 -36 36 -41 42 -8 l4 22 8 -22 c10
-33 31 -28 44 8 13 39 14 49 2 49 -5 0 -12 -12 -16 -27 l-7 -28 -10 28 c-5 15
-13 27 -18 27 -5 0 -13 -12 -18 -27 l-10 -28 -7 28 c-7 25 -25 39 -25 18z"/>
<path d="M1223 783 c-7 -2 -13 -17 -13 -33 0 -28 15 -40 51 -40 29 0 23 18 -8
23 l-28 4 28 2 c28 1 35 19 15 39 -13 13 -24 14 -45 5z m34 -19 c-3 -3 -12 -4
-19 -1 -8 3 -5 6 6 6 11 1 17 -2 13 -5z"/>
<path d="M1311 745 c2 -31 3 -34 6 -12 3 16 11 31 19 34 21 8 17 22 -6 20 -17
-1 -20 -8 -19 -42z"/>
<path d="M1370 749 c0 -44 17 -53 22 -12 4 39 28 42 28 4 0 -38 18 -41 22 -3
4 37 31 35 40 -3 6 -26 6 -25 5 10 l-2 40 -57 1 -58 1 0 -38z"/>
<path d="M1532 778 c-30 -30 -8 -68 39 -68 29 0 23 18 -8 23 l-28 4 28 2 c19
1 27 6 27 20 0 28 -37 40 -58 19z m35 -14 c-3 -3 -12 -4 -19 -1 -8 3 -5 6 6 6
11 1 17 -2 13 -5z"/>
<path d="M1620 748 c0 -21 5 -38 10 -38 6 0 10 14 10 30 0 20 5 30 15 30 10 0
15 -10 15 -30 0 -16 5 -30 11 -30 6 0 9 16 7 38 -3 34 -5 37 -35 37 -32 1 -33
-1 -33 -37z"/>
<path d="M211 705 c-1 -22 -8 -53 -16 -69 -8 -15 -15 -34 -15 -41 0 -8 -7 -21
-16 -29 -14 -15 -13 -16 12 -16 19 0 24 3 17 13 -10 13 19 81 31 70 8 -9 6 57
-4 87 -7 22 -8 20 -9 -15z"/>
<path d="M140 691 c0 -6 5 -13 10 -16 6 -3 10 1 10 9 0 9 -4 16 -10 16 -5 0
-10 -4 -10 -9z"/>
<path d="M361 668 c-1 -31 14 -46 23 -22 8 22 8 26 -3 19 -5 -3 -12 3 -14 12
-3 12 -5 8 -6 -9z"/>
<path d="M272 659 c-5 -13 -7 -30 -5 -36 3 -7 0 -13 -6 -13 -9 0 -9 -5 -1 -21
15 -27 6 -49 -21 -49 -12 0 -19 -5 -16 -12 2 -7 0 -26 -4 -42 -5 -16 -5 -35 0
-43 5 -10 8 -5 9 17 0 17 8 43 17 56 14 22 22 25 63 22 45 -3 48 -5 69 -48 12
-25 22 -37 23 -27 0 23 -19 60 -37 70 -7 5 -11 12 -8 17 3 4 -2 11 -11 14 -10
4 -14 14 -11 26 3 11 1 18 -4 14 -5 -3 -9 -16 -9 -30 0 -30 -28 -32 -39 -2 -4
12 -4 40 0 62 8 47 4 60 -9 25z"/>
<path d="M320 661 c0 -12 5 -21 10 -21 6 0 10 6 10 14 0 8 -4 18 -10 21 -5 3
-10 -3 -10 -14z"/>
<path d="M142 640 c0 -14 2 -19 5 -12 2 6 2 18 0 25 -3 6 -5 1 -5 -13z"/>
<path d="M630 610 c0 -37 2 -41 21 -38 30 4 47 33 33 56 -6 9 -21 18 -33 20
-19 3 -21 -1 -21 -38z m45 0 c0 -16 -6 -26 -17 -28 -14 -3 -18 3 -18 28 0 25
4 31 18 28 11 -2 17 -12 17 -28z"/>
<path d="M1343 638 c-5 -7 -6 -26 -2 -43 l7 -30 1 28 c0 15 7 27 14 27 9 0 8
3 -2 9 -11 7 -11 9 0 14 8 3 9 6 3 6 -6 1 -16 -5 -21 -11z"/>
<path d="M1410 631 c0 -10 7 -21 15 -25 8 -3 15 -10 15 -17 0 -6 -7 -9 -15 -5
-8 3 -15 1 -15 -4 0 -17 30 -11 37 6 4 10 -1 22 -10 29 -21 15 -22 29 -1 21 8
-3 12 -2 9 4 -11 17 -35 11 -35 -9z"/>
<path d="M1683 610 c0 -25 2 -35 4 -22 2 12 2 32 0 45 -2 12 -4 2 -4 -23z"/>
<path d="M395 627 c7 -25 -5 -43 -17 -26 -8 11 -9 11 -5 -1 2 -8 9 -14 15 -13
5 1 13 -4 16 -12 4 -10 -1 -15 -14 -15 -11 0 -20 -4 -20 -10 0 -6 9 -6 24 0
16 6 28 5 36 -3 8 -8 7 -1 -2 18 -9 17 -21 41 -27 55 -6 14 -9 17 -6 7z"/>
<path d="M938 635 c-6 -7 3 -65 11 -65 7 0 7 58 -1 65 -2 3 -7 3 -10 0z"/>
<path d="M1208 635 c-6 -7 3 -65 11 -65 7 0 7 58 -1 65 -2 3 -7 3 -10 0z"/>
<path d="M704 616 c-10 -25 3 -46 28 -45 23 0 23 0 -2 11 l-25 11 23 5 c13 2
21 9 19 15 -6 19 -36 20 -43 3z m33 -2 c-3 -3 -12 -4 -19 -1 -8 3 -5 6 6 6 11
1 17 -2 13 -5z"/>
<path d="M771 588 c0 -24 3 -37 6 -30 2 6 11 12 18 12 14 0 24 28 18 48 -3 6
-13 12 -24 12 -16 0 -19 -7 -18 -42z m29 12 c0 -11 -4 -20 -10 -20 -5 0 -10 9
-10 20 0 11 5 20 10 20 6 0 10 -9 10 -20z"/>
<path d="M843 623 c17 -4 17 -5 1 -17 -19 -14 -12 -36 12 -36 9 0 14 11 14 30
0 25 -4 30 -22 29 -19 -1 -19 -2 -5 -6z m17 -33 c0 -5 -4 -10 -10 -10 -5 0
-10 5 -10 10 0 6 5 10 10 10 6 0 10 -4 10 -10z"/>
<path d="M891 598 c1 -22 3 -26 6 -13 3 11 10 26 15 33 8 9 6 12 -6 12 -12 0
-16 -9 -15 -32z"/>
<path d="M981 598 c2 -31 2 -31 6 -5 2 15 9 27 14 27 5 0 9 -12 10 -27 1 -26
1 -27 7 -5 4 13 12 23 17 23 6 0 13 -10 17 -23 6 -20 7 -19 5 7 -2 27 -6 30
-39 33 -37 2 -38 1 -37 -30z"/>
<path d="M1087 623 c-4 -3 -7 -17 -7 -30 0 -18 5 -23 23 -22 16 1 18 2 5 6
-22 5 -24 23 -3 23 8 0 15 7 15 15 0 15 -21 21 -33 8z"/>
<path d="M1141 598 c2 -31 2 -31 6 -5 5 34 23 36 23 2 0 -14 5 -25 11 -25 7 0
9 9 5 23 -3 12 -6 25 -6 30 0 4 -9 7 -20 7 -16 0 -20 -6 -19 -32z"/>
<path d="M1275 610 c-8 -25 1 -40 25 -40 20 0 32 22 24 45 -9 22 -42 18 -49
-5z m35 -10 c0 -11 -4 -20 -9 -20 -14 0 -23 18 -16 30 10 17 25 11 25 -10z"/>
<path d="M1477 624 c-4 -4 -7 -18 -7 -31 0 -20 5 -24 23 -21 16 2 22 10 22 28
0 24 -23 39 -38 24z m28 -24 c0 -7 -6 -15 -12 -17 -8 -3 -13 4 -13 17 0 13 5
20 13 18 6 -3 12 -11 12 -18z"/>
<path d="M1534 615 c-9 -23 3 -45 23 -44 17 1 17 2 1 6 -10 2 -18 13 -18 23 0
10 8 21 18 23 16 4 16 5 -1 6 -10 0 -20 -6 -23 -14z"/>
<path d="M1592 600 c0 -19 2 -27 5 -17 2 9 2 25 0 35 -3 9 -5 1 -5 -18z"/>
<path d="M1634 622 c19 -8 19 -9 -3 -15 -28 -7 -23 -31 8 -35 19 -3 22 0 19
25 -2 19 -9 29 -23 30 -19 3 -19 3 -1 -5z m11 -32 c-3 -5 -11 -10 -16 -10 -6
0 -7 5 -4 10 3 6 11 10 16 10 6 0 7 -4 4 -10z"/>
<path d="M135 600 c-8 -13 -1 -24 14 -19 6 3 7 10 2 18 -6 10 -10 10 -16 1z"/>
<path d="M446 585 c4 -8 10 -12 15 -9 11 6 2 24 -11 24 -5 0 -7 -7 -4 -15z"/>
<path d="M104 578 c-5 -7 -18 -28 -28 -47 -33 -59 -19 -151 23 -151 10 0 21
-9 24 -20 5 -18 13 -20 74 -19 60 2 63 3 28 9 l-40 7 50 3 c48 2 47 2 -30 14
-105 17 -125 24 -125 45 0 9 -4 21 -9 27 -14 14 -1 66 15 60 15 -6 18 3 14 44
-2 22 0 23 17 10 16 -13 17 -13 6 1 -7 9 -10 19 -6 22 3 4 4 7 1 7 -3 0 -10
-6 -14 -12z"/>
<path d="M476 546 c4 -11 0 -16 -12 -16 -16 0 -16 -1 -2 -12 9 -7 19 -24 21
-38 4 -24 4 -24 6 3 1 28 25 38 34 15 4 -9 6 -7 6 3 1 15 -19 37 -46 53 -9 5
-11 2 -7 -8z"/>
<path d="M135 530 c-3 -5 -1 -10 4 -10 6 0 11 5 11 10 0 6 -2 10 -4 10 -3 0
-8 -4 -11 -10z"/>
<path d="M641 468 c0 -20 -7 -39 -13 -41 -10 -4 -10 -6 0 -6 17 -1 24 21 19
56 -3 24 -4 23 -6 -9z"/>
<path d="M1160 491 c0 -5 -9 -11 -21 -14 -29 -8 -22 -51 9 -55 20 -3 22 1 22
37 0 23 -2 41 -5 41 -3 0 -5 -4 -5 -9z m-5 -41 c0 -7 -6 -15 -12 -17 -8 -3
-13 4 -13 17 0 13 5 20 13 18 6 -3 12 -11 12 -18z"/>
<path d="M1220 460 c0 -35 3 -40 23 -39 16 1 18 2 5 6 -10 2 -18 11 -18 18 0
7 8 16 18 18 16 4 16 5 0 6 -10 0 -18 5 -18 10 0 5 8 12 18 14 13 4 11 5 -5 6
-20 1 -23 -4 -23 -39z"/>
<path d="M150 480 c0 -5 5 -10 11 -10 5 0 7 5 4 10 -3 6 -8 10 -11 10 -2 0 -4
-4 -4 -10z"/>
<path d="M787 484 c-6 -7 5 -64 13 -64 4 0 5 11 2 25 -2 14 0 25 6 25 6 0 13
-12 15 -27 4 -27 4 -27 6 3 1 24 -4 33 -18 37 -11 3 -22 3 -24 1z"/>
<path d="M1928 485 c-6 -7 3 -65 11 -65 7 0 7 58 -1 65 -2 3 -7 3 -10 0z"/>
<path d="M671 453 c-1 -27 3 -33 19 -33 16 0 20 6 19 33 -2 30 -2 30 -6 5 -2
-16 -8 -28 -13 -28 -5 0 -11 12 -13 28 -4 25 -4 25 -6 -5z"/>
<path d="M734 469 c-4 -7 1 -16 12 -22 17 -10 17 -11 -1 -18 -16 -6 -17 -8 -3
-8 25 -1 34 20 13 31 -14 8 -15 12 -4 19 9 6 10 9 2 9 -6 0 -15 -5 -19 -11z"/>
<path d="M854 465 c-9 -23 3 -45 23 -44 17 1 17 2 1 6 -10 2 -18 13 -18 23 0
10 8 21 18 23 16 4 16 5 -1 6 -10 0 -20 -6 -23 -14z"/>
<path d="M907 465 c-10 -24 3 -45 27 -44 20 0 19 1 -4 11 l-25 11 23 5 c13 2
21 9 19 15 -6 18 -34 20 -40 2z"/>
<path d="M1014 472 c19 -8 19 -9 -3 -15 -28 -7 -23 -31 8 -35 19 -3 22 0 19
25 -2 19 -9 29 -23 30 -19 3 -19 3 -1 -5z m11 -32 c-3 -5 -11 -10 -16 -10 -6
0 -7 5 -4 10 3 6 11 10 16 10 6 0 7 -4 4 -10z"/>
<path d="M1061 448 c2 -31 2 -31 6 -5 2 15 8 27 13 27 5 0 11 -12 13 -27 4
-26 4 -26 6 5 1 26 -3 32 -19 32 -16 0 -20 -6 -19 -32z"/>
<path d="M1281 448 c2 -31 2 -31 6 -5 2 15 9 27 14 27 5 0 9 -12 10 -27 1 -26
1 -27 7 -5 9 30 25 30 34 0 6 -20 7 -19 5 7 -2 27 -6 30 -39 33 -37 2 -38 1
-37 -30z"/>
<path d="M1381 438 c0 -24 3 -37 6 -30 2 6 11 12 18 12 14 0 24 28 18 48 -3 6
-13 12 -24 12 -16 0 -19 -7 -18 -42z m29 12 c0 -11 -4 -20 -10 -20 -5 0 -10 9
-10 20 0 11 5 20 10 20 6 0 10 -9 10 -20z"/>
<path d="M1444 466 c-9 -24 4 -48 23 -44 24 4 24 52 0 56 -9 2 -20 -4 -23 -12z
m34 -13 c-5 -25 -28 -28 -28 -4 0 12 6 21 16 21 9 0 14 -7 12 -17z"/>
<path d="M1506 460 c3 -14 10 -29 15 -34 14 -16 10 6 -7 34 l-15 25 7 -25z"/>
<path d="M1530 465 c0 -8 5 -15 10 -15 6 0 10 7 10 15 0 8 -4 15 -10 15 -5 0
-10 -7 -10 -15z"/>
<path d="M1561 454 c-6 -15 -9 -29 -7 -32 3 -2 10 8 16 23 14 36 7 43 -9 9z"/>
<path d="M1594 466 c-10 -25 3 -46 28 -45 23 0 23 0 -2 11 l-25 11 23 5 c13 2
21 9 19 15 -6 19 -36 20 -43 3z m33 -2 c-3 -3 -12 -4 -19 -1 -8 3 -5 6 6 6 11
1 17 -2 13 -5z"/>
<path d="M1661 448 c2 -28 2 -29 6 -8 3 14 10 28 17 32 7 5 5 8 -6 8 -14 0
-18 -8 -17 -32z"/>
<path d="M1701 448 c1 -21 3 -26 6 -13 8 34 23 41 23 12 0 -15 5 -27 10 -27 6
0 10 11 10 25 0 33 17 32 23 0 4 -23 4 -23 3 2 -1 25 -5 28 -38 31 -37 2 -38
1 -37 -30z"/>
<path d="M1807 473 c-4 -3 -7 -17 -7 -30 0 -18 5 -23 23 -22 16 1 18 2 5 6
-22 5 -24 23 -3 23 8 0 15 7 15 15 0 15 -21 21 -33 8z"/>
<path d="M1861 448 c1 -28 2 -29 7 -10 4 13 12 23 17 23 6 0 13 -10 17 -23 6
-19 7 -18 5 7 -2 23 -7 31 -24 33 -20 3 -23 -1 -22 -30z"/>
<path d="M373 443 c4 -3 1 -13 -6 -22 -11 -14 -10 -14 5 -2 16 12 16 31 1 31
-4 0 -3 -3 0 -7z"/>
<path d="M156 431 c-3 -5 4 -11 16 -14 30 -8 35 -1 9 12 -11 6 -22 7 -25 2z"/>
<path d="M487 433 c-4 -3 -7 -11 -7 -17 0 -6 5 -5 12 2 6 6 9 14 7 17 -3 3 -9
2 -12 -2z"/>
<path d="M508 415 c-13 -17 -26 -22 -56 -21 -29 1 -38 -2 -35 -11 3 -7 0 -13
-6 -13 -6 0 -11 5 -11 10 0 6 -5 10 -11 10 -5 0 -8 -4 -4 -9 3 -6 -12 -12 -32
-14 -35 -3 -34 -4 12 -7 45 -2 47 -3 20 -10 -25 -6 -22 -8 23 -9 46 -1 55 2
59 19 3 11 11 20 18 20 16 0 48 36 44 48 -2 6 -12 0 -21 -13z m-53 -35 c3 -5
-1 -10 -10 -10 -9 0 -13 5 -10 10 3 6 8 10 10 10 2 0 7 -4 10 -10z"/>
<path d="M255 390 c3 -5 8 -10 11 -10 2 0 4 5 4 10 0 6 -5 10 -11 10 -5 0 -7
-4 -4 -10z"/>
<path d="M634 346 c-3 -8 -4 -25 -2 -38 4 -29 51 -33 56 -5 2 11 -3 17 -15 17
-15 0 -15 -2 -3 -10 18 -11 6 -25 -15 -16 -25 9 -15 51 12 50 12 0 20 3 17 8
-8 13 -44 9 -50 -6z"/>
<path d="M1363 348 c-5 -7 -6 -26 -2 -43 l7 -30 1 28 c0 15 7 27 14 27 9 0 8
3 -2 9 -11 7 -11 9 0 14 8 3 9 6 3 6 -6 1 -16 -5 -21 -11z"/>
<path d="M1433 320 c0 -25 2 -35 4 -22 2 12 2 32 0 45 -2 12 -4 2 -4 -23z"/>
<path d="M1560 350 c0 -5 -7 -10 -15 -10 -10 0 -15 -10 -15 -30 0 -23 4 -30
20 -30 17 0 20 7 20 40 0 22 -2 40 -5 40 -3 0 -5 -4 -5 -10z m0 -40 c0 -11 -4
-20 -10 -20 -5 0 -10 9 -10 20 0 11 5 20 10 20 6 0 10 -9 10 -20z"/>
<path d="M288 343 c6 -2 18 -2 25 0 6 3 1 5 -13 5 -14 0 -19 -2 -12 -5z"/>
<path d="M1228 345 c-6 -7 3 -65 11 -65 7 0 7 58 -1 65 -2 3 -7 3 -10 0z"/>
<path d="M705 320 c-8 -25 1 -40 25 -40 20 0 32 22 24 45 -9 22 -42 18 -49 -5z
m35 -10 c0 -21 -15 -27 -25 -10 -7 12 2 30 16 30 5 0 9 -9 9 -20z"/>
<path d="M777 310 c8 -42 18 -42 26 0 2 14 2 19 0 13 -3 -7 -8 -13 -13 -13 -5
0 -10 6 -13 13 -2 6 -2 1 0 -13z"/>
<path d="M827 325 c-10 -24 3 -45 27 -44 20 0 19 1 -4 11 l-25 11 23 5 c13 2
21 9 19 15 -6 18 -34 20 -40 2z"/>
<path d="M891 308 c2 -28 2 -29 6 -8 3 14 10 28 17 32 7 5 5 8 -6 8 -14 0 -18
-8 -17 -32z"/>
<path d="M931 308 c1 -29 2 -30 8 -9 9 34 29 37 34 6 4 -24 4 -24 3 2 -1 21
-7 29 -23 31 -20 3 -23 -1 -22 -30z"/>
<path d="M1001 308 c2 -31 2 -31 6 -5 2 15 9 27 14 27 5 0 9 -12 10 -27 1 -26
1 -27 7 -5 4 13 12 23 17 23 6 0 13 -10 17 -23 6 -20 7 -19 5 7 -2 27 -6 30
-39 33 -37 2 -38 1 -37 -30z"/>
<path d="M1097 325 c-10 -24 3 -45 27 -44 20 0 19 1 -4 11 l-25 11 23 5 c13 2
21 9 19 15 -6 18 -34 20 -40 2z"/>
<path d="M1161 308 c2 -31 2 -31 6 -5 5 34 23 36 23 2 0 -14 5 -25 11 -25 7 0
9 9 5 23 -3 12 -6 25 -6 30 0 4 -9 7 -20 7 -16 0 -20 -6 -19 -32z"/>
<path d="M1295 320 c-8 -25 1 -40 25 -40 20 0 32 22 24 45 -9 22 -42 18 -49
-5z m35 -10 c0 -21 -15 -27 -25 -10 -7 12 2 30 16 30 5 0 9 -9 9 -20z"/>
<path d="M1461 308 c1 -29 2 -30 8 -9 9 34 29 37 34 6 4 -24 4 -24 3 2 -1 21
-7 29 -23 31 -20 3 -23 -1 -22 -30z"/>
<path d="M1590 310 c0 -16 5 -30 10 -30 6 0 10 14 10 30 0 17 -4 30 -10 30 -5
0 -10 -13 -10 -30z"/>
<path d="M1633 333 c17 -4 17 -5 1 -17 -19 -14 -12 -36 12 -36 9 0 14 11 14
30 0 25 -4 30 -22 29 -19 -1 -19 -2 -5 -6z m17 -33 c0 -5 -4 -10 -10 -10 -5 0
-10 5 -10 10 0 6 5 10 10 10 6 0 10 -4 10 -10z"/>
<path d="M207 260 c-3 -11 -1 -23 4 -26 5 -3 9 6 9 20 0 31 -6 34 -13 6z"/>
<path d="M312 255 c0 -16 2 -22 5 -12 2 9 2 23 0 30 -3 6 -5 -1 -5 -18z"/>
<path d="M394 267 c-8 -9 -7 -16 3 -25 11 -11 13 -8 13 13 0 28 -1 29 -16 12z"/>
<path d="M447 260 c-3 -11 -2 -22 3 -25 4 -3 10 6 12 20 6 30 -7 34 -15 5z"/>
<path d="M500 255 c0 -14 2 -25 4 -25 2 0 6 11 8 25 3 14 1 25 -3 25 -5 0 -9
-11 -9 -25z"/>
<path d="M120 251 c0 -6 4 -13 10 -16 6 -3 7 1 4 9 -7 18 -14 21 -14 7z"/>
<path d="M230 250 c0 -5 5 -10 10 -10 6 0 10 5 10 10 0 6 -4 10 -10 10 -5 0
-10 -4 -10 -10z"/>
<path d="M261 244 c0 -11 3 -14 6 -6 3 7 2 16 -1 19 -3 4 -6 -2 -5 -13z"/>
</g>
</svg>
